<?xml version="1.0" encoding="UTF-8" standalone="no"?>
<!DOCTYPE svg PUBLIC "-//W3C//DTD SVG 1.1//EN" "http://www.w3.org/Graphics/SVG/1.1/DTD/svg11.dtd">
<svg version="1.1" xmlns="http://www.w3.org/2000/svg" xmlns:xlink="http://www.w3.org/1999/xlink" preserveAspectRatio="xMidYMid meet" viewBox="0 0 92 92" width="92" height="92"><defs><path d="M65.37 54.69C65.28 51.79 62.87 49.48 59.97 49.48C59.95 49.48 59.8 49.48 59.78 49.48C56.79 49.57 54.47 52.08 54.57 55.08C54.66 56.52 55.24 57.78 56.11 58.65C52.83 65.11 47.81 69.84 40.28 73.8C35.17 76.5 29.86 77.47 24.55 76.79C20.21 76.21 16.83 74.28 14.71 71.1C11.62 66.37 11.33 61.25 13.94 56.14C15.77 52.47 18.66 49.77 20.5 48.42C20.11 47.16 19.53 45.04 19.24 43.49C5.25 53.63 6.7 67.33 10.94 73.8C14.13 78.63 20.59 81.62 27.74 81.62C29.67 81.62 31.6 81.42 33.53 80.94C45.88 78.53 55.24 71.19 60.55 60.29C63.35 60 65.47 57.59 65.37 54.69ZM47.04 35C46.88 35 45.65 35 45.49 35C44.63 33.26 42.79 32.11 40.76 32.11C40.75 32.11 40.59 32.11 40.57 32.11C37.58 32.2 35.26 34.71 35.36 37.7C35.46 40.6 37.87 42.92 40.76 42.92C40.78 42.92 40.94 42.92 40.96 42.92C43.08 42.82 44.91 41.47 45.69 39.63C45.86 39.63 47.25 39.63 47.42 39.63C54.76 39.63 61.71 41.76 67.98 45.91C72.81 49.09 76.28 53.24 78.21 58.26C79.85 62.31 79.75 66.27 78.02 69.65C75.32 74.77 70.78 77.56 64.8 77.56C60.94 77.56 57.27 76.41 55.34 75.54C54.28 76.5 52.35 78.05 50.99 79.01C55.14 80.94 59.39 82 63.44 82C72.71 82 79.56 76.89 82.17 71.77C84.97 66.18 84.77 56.52 77.54 48.32C70.2 39.73 59.39 35 47.04 35ZM33.91 67.14C33.93 67.14 34.09 67.14 34.11 67.14C37.1 67.04 39.41 64.53 39.32 61.54C39.22 58.65 36.81 56.33 33.91 56.33C33.89 56.33 33.74 56.33 33.72 56.33C33.53 56.33 33.24 56.33 33.04 56.43C29.09 49.86 27.45 42.72 28.03 35C28.41 29.21 30.34 24.19 33.72 20.04C36.52 16.47 41.92 14.73 45.59 14.64C55.82 14.44 60.16 27.18 60.45 32.3C61.71 32.59 63.83 33.26 65.28 33.75C64.12 18.11 54.47 10 45.2 10C36.52 10 28.51 16.28 25.32 25.54C20.88 37.9 23.78 49.77 29.18 59.13C28.7 59.81 28.41 60.87 28.51 61.93C28.6 64.82 31.02 67.14 33.91 67.14Z" id="f2R59TnHDB"></path></defs><g><g><g><use xlink:href="#f2R59TnHDB" opacity="1" fill="#764abc" fill-opacity="1"></use><g><use xlink:href="#f2R59TnHDB" opacity="1" fill-opacity="0" stroke="#000000" stroke-width="1" stroke-opacity="0"></use></g></g></g></g></svg>