<?xml version="1.0" encoding="UTF-8" standalone="no"?>
<!DOCTYPE svg PUBLIC "-//W3C//DTD SVG 1.1//EN" "http://www.w3.org/Graphics/SVG/1.1/DTD/svg11.dtd">
<svg version="1.1" xmlns="http://www.w3.org/2000/svg" xmlns:xlink="http://www.w3.org/1999/xlink" preserveAspectRatio="xMidYMid meet" viewBox="0 0 92 92" width="92" height="92"><defs><path d="M49.21 11.36C47.4 9.55 44.47 9.55 42.65 11.36C42.22 11.79 40.04 13.97 36.13 17.88C41.09 22.85 43.85 25.61 44.41 26.16C46.33 25.51 48.54 25.95 50.07 27.48C51.61 29.03 52.05 31.25 51.38 33.19C52.18 33.98 58.56 40.37 59.36 41.17C61.29 40.5 63.52 40.93 65.06 42.48C67.22 44.63 67.22 48.12 65.06 50.28C62.9 52.43 59.41 52.43 57.26 50.28C55.64 48.66 55.23 46.27 56.06 44.28C55.56 43.78 53.08 41.3 48.61 36.83C48.61 48.59 48.61 55.12 48.61 56.42C49.14 56.68 49.63 57.03 50.07 57.47C52.23 59.62 52.23 63.11 50.07 65.27C47.92 67.42 44.42 67.42 42.27 65.27C40.11 63.11 40.11 59.62 42.27 57.47C42.8 56.93 43.42 56.53 44.08 56.26C44.08 54.28 44.08 38.47 44.08 36.49C43.42 36.22 42.8 35.82 42.27 35.29C40.64 33.66 40.24 31.26 41.08 29.26C40.54 28.71 37.82 25.99 32.92 21.09C19.99 34.02 12.8 41.21 11.36 42.64C9.55 44.46 9.55 47.39 11.36 49.2C14.51 52.35 39.66 77.5 42.8 80.64C44.61 82.45 47.55 82.45 49.36 80.64C52.49 77.51 77.52 52.48 80.65 49.35C82.46 47.54 82.46 44.6 80.65 42.79C74.36 36.5 52.35 14.5 49.21 11.36Z" id="c1iSBM8cYl"></path></defs><g><g><g><use xlink:href="#c1iSBM8cYl" opacity="1" fill="#f05133" fill-opacity="1"></use><g><use xlink:href="#c1iSBM8cYl" opacity="1" fill-opacity="0" stroke="#000000" stroke-width="1" stroke-opacity="0"></use></g></g></g></g></svg>