<?xml version="1.0" encoding="UTF-8" standalone="no"?>
<!DOCTYPE svg PUBLIC "-//W3C//DTD SVG 1.1//EN" "http://www.w3.org/Graphics/SVG/1.1/DTD/svg11.dtd">
<svg version="1.1" xmlns="http://www.w3.org/2000/svg" xmlns:xlink="http://www.w3.org/1999/xlink" preserveAspectRatio="xMidYMid meet" viewBox="0 0 92 92" width="92" height="92"><defs><path d="M20.24 74.8L46 82L71.75 74.8L77.5 10L14.5 10L20.24 74.8Z" id="c1AQDPf1eE"></path><path d="M46 31.44L34.86 31.44L35.58 39.58L46 39.58L64.34 39.58L62.18 63.99L46 68.5L45.99 68.5L29.82 63.99L28.7 51.22L36.62 51.22L37.2 57.84L45.99 60.23L46 60.23L46 60.23L54.8 57.84L55.72 47.53L46 47.53L46 47.53L28.37 47.53L26.24 23.5L46 23.5L65.76 23.5L65.06 31.44L46 31.44Z" id="a5KB0g6gMi"></path></defs><g><g><g><use xlink:href="#c1AQDPf1eE" opacity="1" fill="#ff5722" fill-opacity="1"></use><g><use xlink:href="#c1AQDPf1eE" opacity="1" fill-opacity="0" stroke="#000000" stroke-width="1" stroke-opacity="0"></use></g></g><g><use xlink:href="#a5KB0g6gMi" opacity="1" fill="#fafafa" fill-opacity="1"></use><g><use xlink:href="#a5KB0g6gMi" opacity="1" fill-opacity="0" stroke="#000000" stroke-width="1" stroke-opacity="0"></use></g></g></g></g></svg>