<?xml version="1.0" encoding="UTF-8" standalone="no"?>
<!DOCTYPE svg PUBLIC "-//W3C//DTD SVG 1.1//EN" "http://www.w3.org/Graphics/SVG/1.1/DTD/svg11.dtd">
<svg version="1.1" xmlns="http://www.w3.org/2000/svg" xmlns:xlink="http://www.w3.org/1999/xlink" preserveAspectRatio="xMidYMid meet" viewBox="0 0 92 92" width="92" height="92"><defs><path d="M5 49.01L5 13.5L35.75 31.26L35.75 43.09L15.25 31.26L15.25 54.93L5 49.01Z" id="d1I3nSRihu"></path><path d="M35.75 31.26L66.5 13.5L66.5 49.01L46 60.85L35.75 54.93L56.25 43.09L56.25 31.26L35.75 43.09L35.75 31.26Z" id="a4RdvW99mj"></path><path d="M35.75 54.93L35.75 66.77L56.25 78.6L56.25 66.77L35.75 54.93Z" id="a21tWBmNHv"></path><path d="M56.25 78.6L87 60.85L87 37.18L76.75 43.09L76.75 54.93L56.25 66.77L56.25 78.6ZM76.75 31.26L76.75 19.42L87 13.5L87 25.34L76.75 31.26Z" id="a1gAKAODil"></path></defs><g><g><g><use xlink:href="#d1I3nSRihu" opacity="1" fill="#00b0ff" fill-opacity="1"></use><g><use xlink:href="#d1I3nSRihu" opacity="1" fill-opacity="0" stroke="#000000" stroke-width="1" stroke-opacity="0"></use></g></g><g><use xlink:href="#a4RdvW99mj" opacity="1" fill="#0081cb" fill-opacity="1"></use><g><use xlink:href="#a4RdvW99mj" opacity="1" fill-opacity="0" stroke="#000000" stroke-width="1" stroke-opacity="0"></use></g></g><g><use xlink:href="#a21tWBmNHv" opacity="1" fill="#00b0ff" fill-opacity="1"></use><g><use xlink:href="#a21tWBmNHv" opacity="1" fill-opacity="0" stroke="#000000" stroke-width="1" stroke-opacity="0"></use></g></g><g><use xlink:href="#a1gAKAODil" opacity="1" fill="#0081cb" fill-opacity="1"></use><g><use xlink:href="#a1gAKAODil" opacity="1" fill-opacity="0" stroke="#000000" stroke-width="1" stroke-opacity="0"></use></g></g></g></g></svg>